<svg width="283" height="63" viewBox="0 0 283 63" fill="none" xmlns="http://www.w3.org/2000/svg">
<path d="M7.52271 47V0.45459H26.75C30.2348 0.45459 33.2424 1.08338 35.7727 2.34095C38.3182 3.58338 40.2803 5.37126 41.6591 7.70459C43.0379 10.0228 43.7272 12.7728 43.7272 15.9546C43.7272 19.1819 43.0227 21.9243 41.6136 24.1819C40.2045 26.4243 38.2045 28.1364 35.6136 29.3182C33.0227 30.4849 29.9545 31.0682 26.4091 31.0682H14.25V22.2046H24.3182C26.0151 22.2046 27.4318 21.9849 28.5682 21.5455C29.7197 21.091 30.5909 20.4091 31.1818 19.5C31.7727 18.5758 32.0682 17.394 32.0682 15.9546C32.0682 14.5152 31.7727 13.3258 31.1818 12.3864C30.5909 11.4319 29.7197 10.7197 28.5682 10.25C27.4166 9.7652 26 9.52277 24.3182 9.52277H18.7727V47H7.52271ZM33.7273 25.7273L45.3182 47H33.0454L21.6818 25.7273H33.7273Z" fill="#BE3939"/>
<path d="M49.5674 47V4.81823H78.9794V13.0981H59.7628V21.7486H77.4758V30.0491H59.7628V38.7202H78.9794V47H49.5674Z" fill="#BE3939"/>
<path d="M85.1442 47V7.72732H101.367C104.308 7.72732 106.845 8.25786 108.98 9.31894C111.128 10.3672 112.783 11.8758 113.947 13.8445C115.11 15.8005 115.692 18.1208 115.692 20.8054C115.692 23.5285 115.097 25.8424 113.908 27.7472C112.719 29.6392 111.032 31.0839 108.846 32.081C106.66 33.0654 104.071 33.5576 101.08 33.5576H90.8203V26.0789H99.3153C100.747 26.0789 101.942 25.8935 102.901 25.5228C103.873 25.1392 104.608 24.564 105.107 23.7969C105.605 23.0171 105.854 22.0199 105.854 20.8054C105.854 19.591 105.605 18.5874 105.107 17.7948C104.608 16.9894 103.873 16.3885 102.901 15.9922C101.93 15.5831 100.734 15.3786 99.3153 15.3786H94.6363V47H85.1442ZM107.254 29.0512L117.034 47H106.679L97.0909 29.0512H107.254Z" fill="#BE3939"/>
<path d="M155 28.8182C155 32.8192 154.23 36.2105 152.691 38.9922C151.153 41.774 149.069 43.8869 146.441 45.331C143.825 46.7751 140.89 47.4972 137.635 47.4972C134.368 47.4972 131.426 46.7692 128.81 45.3133C126.194 43.8573 124.117 41.7444 122.578 38.9745C121.051 36.1928 120.287 32.8073 120.287 28.8182C120.287 24.8173 121.051 21.4259 122.578 18.6442C124.117 15.8625 126.194 13.7496 128.81 12.3054C131.426 10.8613 134.368 10.1392 137.635 10.1392C140.89 10.1392 143.825 10.8613 146.441 12.3054C149.069 13.7496 151.153 15.8625 152.691 18.6442C154.23 21.4259 155 24.8173 155 28.8182ZM146.015 28.8182C146.015 26.4508 145.678 24.4503 145.003 22.8168C144.34 21.1833 143.381 19.9463 142.127 19.1059C140.884 18.2654 139.386 17.8452 137.635 17.8452C135.895 17.8452 134.397 18.2654 133.142 19.1059C131.888 19.9463 130.923 21.1833 130.248 22.8168C129.585 24.4503 129.254 26.4508 129.254 28.8182C129.254 31.1857 129.585 33.1861 130.248 34.8196C130.923 36.4532 131.888 37.6902 133.142 38.5306C134.397 39.371 135.895 39.7912 137.635 39.7912C139.386 39.7912 140.884 39.371 142.127 38.5306C143.381 37.6902 144.34 36.4532 145.003 34.8196C145.678 33.1861 146.015 31.1857 146.015 28.8182Z" fill="#BE3939"/>
<path d="M160.131 47V10.6364H184.953V17.7742H168.92V25.2316H183.373V32.3871H168.92V47H160.131Z" fill="#BE3939"/>
<path d="M189.599 47V7.72732H199.091V39.2912H215.429V47H189.599Z" fill="#BE3939"/>
<path d="M230.759 4.81823V47H220.564V4.81823H230.759Z" fill="#BE3939"/>
<path d="M248.876 0.45459L257.376 15.1591H257.74L266.33 0.45459H278.921L264.876 23.7273L279.376 47H266.467L257.74 32.1364H257.376L248.649 47H235.83L250.262 23.7273L236.194 0.45459H248.876Z" fill="#BE3939"/>
<line x1="283" y1="60.5" y2="60.5" stroke="#BE3939" stroke-width="5"/>
</svg>
